<mxfile host="app.diagrams.net" modified="2023-01-04T16:47:41.642Z" agent="5.0 (Windows NT 10.0; Win64; x64) AppleWebKit/537.36 (KHTML, like Gecko) Chrome/108.0.0.0 Safari/537.36" etag="mSwsxw53k_T1h1ZfRnfs" version="20.7.4" type="github">
  <diagram name="Page-1" id="e7e014a7-5840-1c2e-5031-d8a46d1fe8dd">
    <mxGraphModel dx="893" dy="923" grid="1" gridSize="10" guides="1" tooltips="1" connect="1" arrows="1" fold="1" page="1" pageScale="1" pageWidth="1169" pageHeight="826" background="none" math="0" shadow="0">
      <root>
        <mxCell id="0" />
        <mxCell id="1" parent="0" />
        <mxCell id="EQnFLqJTd3W4uoFZLphS-99" value="" style="ellipse;html=1;shape=endState;fillColor=#000000;strokeColor=#ff0000;" vertex="1" parent="1">
          <mxGeometry x="585" y="670" width="30" height="30" as="geometry" />
        </mxCell>
        <mxCell id="EQnFLqJTd3W4uoFZLphS-114" style="edgeStyle=orthogonalEdgeStyle;rounded=0;orthogonalLoop=1;jettySize=auto;html=1;entryX=0;entryY=0.5;entryDx=0;entryDy=0;" edge="1" parent="1" source="EQnFLqJTd3W4uoFZLphS-100" target="EQnFLqJTd3W4uoFZLphS-111">
          <mxGeometry relative="1" as="geometry" />
        </mxCell>
        <mxCell id="EQnFLqJTd3W4uoFZLphS-100" value="Registrace" style="rounded=1;whiteSpace=wrap;html=1;arcSize=40;fontColor=#000000;fillColor=#ffffc0;strokeColor=#ff0000;" vertex="1" parent="1">
          <mxGeometry x="385" y="160" width="120" height="40" as="geometry" />
        </mxCell>
        <mxCell id="EQnFLqJTd3W4uoFZLphS-102" value="" style="ellipse;html=1;shape=startState;fillColor=#000000;strokeColor=#ff0000;" vertex="1" parent="1">
          <mxGeometry x="430" y="10" width="30" height="30" as="geometry" />
        </mxCell>
        <mxCell id="EQnFLqJTd3W4uoFZLphS-107" style="edgeStyle=orthogonalEdgeStyle;rounded=0;orthogonalLoop=1;jettySize=auto;html=1;entryX=0.5;entryY=0;entryDx=0;entryDy=0;" edge="1" parent="1" source="EQnFLqJTd3W4uoFZLphS-106" target="EQnFLqJTd3W4uoFZLphS-100">
          <mxGeometry relative="1" as="geometry" />
        </mxCell>
        <mxCell id="EQnFLqJTd3W4uoFZLphS-112" style="edgeStyle=orthogonalEdgeStyle;rounded=0;orthogonalLoop=1;jettySize=auto;html=1;entryX=0.5;entryY=0;entryDx=0;entryDy=0;" edge="1" parent="1" source="EQnFLqJTd3W4uoFZLphS-106" target="EQnFLqJTd3W4uoFZLphS-111">
          <mxGeometry relative="1" as="geometry" />
        </mxCell>
        <mxCell id="EQnFLqJTd3W4uoFZLphS-106" value="" style="rhombus;whiteSpace=wrap;html=1;" vertex="1" parent="1">
          <mxGeometry x="417.5" y="70" width="55" height="30" as="geometry" />
        </mxCell>
        <mxCell id="EQnFLqJTd3W4uoFZLphS-109" style="edgeStyle=orthogonalEdgeStyle;rounded=0;orthogonalLoop=1;jettySize=auto;html=1;entryX=0.5;entryY=0;entryDx=0;entryDy=0;exitX=0.5;exitY=1;exitDx=0;exitDy=0;" edge="1" parent="1" source="EQnFLqJTd3W4uoFZLphS-102" target="EQnFLqJTd3W4uoFZLphS-106">
          <mxGeometry relative="1" as="geometry">
            <mxPoint x="445" y="140" as="sourcePoint" />
          </mxGeometry>
        </mxCell>
        <mxCell id="EQnFLqJTd3W4uoFZLphS-110" value="[Uživatel neexistuje]" style="text;html=1;align=center;verticalAlign=middle;resizable=0;points=[];autosize=1;strokeColor=none;fillColor=none;" vertex="1" parent="1">
          <mxGeometry x="395" y="95" width="130" height="30" as="geometry" />
        </mxCell>
        <mxCell id="EQnFLqJTd3W4uoFZLphS-130" style="edgeStyle=orthogonalEdgeStyle;rounded=0;orthogonalLoop=1;jettySize=auto;html=1;entryX=0.5;entryY=0;entryDx=0;entryDy=0;" edge="1" parent="1" source="EQnFLqJTd3W4uoFZLphS-111" target="EQnFLqJTd3W4uoFZLphS-129">
          <mxGeometry relative="1" as="geometry" />
        </mxCell>
        <mxCell id="EQnFLqJTd3W4uoFZLphS-111" value="Přihlášení" style="rounded=1;whiteSpace=wrap;html=1;arcSize=40;fontColor=#000000;fillColor=#ffffc0;strokeColor=#ff0000;" vertex="1" parent="1">
          <mxGeometry x="540" y="160" width="120" height="40" as="geometry" />
        </mxCell>
        <mxCell id="EQnFLqJTd3W4uoFZLphS-113" value="[OK]" style="text;html=1;align=center;verticalAlign=middle;resizable=0;points=[];autosize=1;strokeColor=none;fillColor=none;" vertex="1" parent="1">
          <mxGeometry x="510" y="60" width="50" height="30" as="geometry" />
        </mxCell>
        <mxCell id="EQnFLqJTd3W4uoFZLphS-115" value="" style="line;strokeWidth=1;fillColor=none;align=left;verticalAlign=middle;spacingTop=-1;spacingLeft=3;spacingRight=3;rotatable=0;labelPosition=right;points=[];portConstraint=eastwest;strokeColor=inherit;" vertex="1" parent="1">
          <mxGeometry x="582.5" y="340" width="40" height="8" as="geometry" />
        </mxCell>
        <mxCell id="EQnFLqJTd3W4uoFZLphS-116" value="" style="line;strokeWidth=1;fillColor=none;align=left;verticalAlign=middle;spacingTop=-1;spacingLeft=3;spacingRight=3;rotatable=0;labelPosition=right;points=[];portConstraint=eastwest;strokeColor=inherit;" vertex="1" parent="1">
          <mxGeometry x="580" y="530" width="40" height="40" as="geometry" />
        </mxCell>
        <mxCell id="EQnFLqJTd3W4uoFZLphS-117" value="Navolení míst" style="rounded=1;whiteSpace=wrap;html=1;arcSize=40;fontColor=#000000;fillColor=#ffffc0;strokeColor=#ff0000;" vertex="1" parent="1">
          <mxGeometry x="385" y="440" width="85" height="30" as="geometry" />
        </mxCell>
        <mxCell id="EQnFLqJTd3W4uoFZLphS-118" value="Vybrání počátečního místa" style="rounded=1;whiteSpace=wrap;html=1;arcSize=40;fontColor=#000000;fillColor=#ffffc0;strokeColor=#ff0000;" vertex="1" parent="1">
          <mxGeometry x="490" y="440" width="155" height="30" as="geometry" />
        </mxCell>
        <mxCell id="EQnFLqJTd3W4uoFZLphS-119" value="Vybrání koncového místa" style="rounded=1;whiteSpace=wrap;html=1;arcSize=40;fontColor=#000000;fillColor=#ffffc0;strokeColor=#ff0000;" vertex="1" parent="1">
          <mxGeometry x="660" y="440" width="150" height="30" as="geometry" />
        </mxCell>
        <mxCell id="EQnFLqJTd3W4uoFZLphS-120" value="" style="endArrow=classic;html=1;rounded=0;exitX=0.309;exitY=0.522;exitDx=0;exitDy=0;exitPerimeter=0;entryX=0.5;entryY=0;entryDx=0;entryDy=0;" edge="1" parent="1" source="EQnFLqJTd3W4uoFZLphS-115" target="EQnFLqJTd3W4uoFZLphS-117">
          <mxGeometry width="50" height="50" relative="1" as="geometry">
            <mxPoint x="590" y="348" as="sourcePoint" />
            <mxPoint x="510" y="448" as="targetPoint" />
          </mxGeometry>
        </mxCell>
        <mxCell id="EQnFLqJTd3W4uoFZLphS-123" value="" style="endArrow=classic;html=1;rounded=0;exitX=0.583;exitY=0.514;exitDx=0;exitDy=0;exitPerimeter=0;entryX=0.5;entryY=0;entryDx=0;entryDy=0;" edge="1" parent="1" source="EQnFLqJTd3W4uoFZLphS-115" target="EQnFLqJTd3W4uoFZLphS-118">
          <mxGeometry width="50" height="50" relative="1" as="geometry">
            <mxPoint x="606.9399999999998" y="353.36800000000005" as="sourcePoint" />
            <mxPoint x="437.5" y="450" as="targetPoint" />
          </mxGeometry>
        </mxCell>
        <mxCell id="EQnFLqJTd3W4uoFZLphS-124" value="" style="endArrow=classic;html=1;rounded=0;entryX=0.467;entryY=0;entryDx=0;entryDy=0;entryPerimeter=0;" edge="1" parent="1" target="EQnFLqJTd3W4uoFZLphS-119">
          <mxGeometry width="50" height="50" relative="1" as="geometry">
            <mxPoint x="610" y="344" as="sourcePoint" />
            <mxPoint x="577.5" y="450" as="targetPoint" />
          </mxGeometry>
        </mxCell>
        <mxCell id="EQnFLqJTd3W4uoFZLphS-125" value="" style="endArrow=classic;html=1;rounded=0;exitX=0.583;exitY=0.514;exitDx=0;exitDy=0;exitPerimeter=0;entryX=0.25;entryY=0.5;entryDx=0;entryDy=0;entryPerimeter=0;" edge="1" parent="1" target="EQnFLqJTd3W4uoFZLphS-116">
          <mxGeometry width="50" height="50" relative="1" as="geometry">
            <mxPoint x="429.99999999999994" y="470.00200000000007" as="sourcePoint" />
            <mxPoint x="391.68" y="565.89" as="targetPoint" />
          </mxGeometry>
        </mxCell>
        <mxCell id="EQnFLqJTd3W4uoFZLphS-127" value="" style="endArrow=classic;html=1;rounded=0;exitX=0.583;exitY=0.514;exitDx=0;exitDy=0;exitPerimeter=0;entryX=0.542;entryY=0.494;entryDx=0;entryDy=0;entryPerimeter=0;" edge="1" parent="1" target="EQnFLqJTd3W4uoFZLphS-116">
          <mxGeometry width="50" height="50" relative="1" as="geometry">
            <mxPoint x="570" y="470.00199999999995" as="sourcePoint" />
            <mxPoint x="730" y="550" as="targetPoint" />
          </mxGeometry>
        </mxCell>
        <mxCell id="EQnFLqJTd3W4uoFZLphS-128" value="" style="endArrow=classic;html=1;rounded=0;exitX=0.457;exitY=1.006;exitDx=0;exitDy=0;exitPerimeter=0;entryX=0.758;entryY=0.504;entryDx=0;entryDy=0;entryPerimeter=0;" edge="1" parent="1" source="EQnFLqJTd3W4uoFZLphS-119" target="EQnFLqJTd3W4uoFZLphS-116">
          <mxGeometry width="50" height="50" relative="1" as="geometry">
            <mxPoint x="450" y="490.00199999999995" as="sourcePoint" />
            <mxPoint x="610" y="570" as="targetPoint" />
          </mxGeometry>
        </mxCell>
        <mxCell id="EQnFLqJTd3W4uoFZLphS-132" style="edgeStyle=orthogonalEdgeStyle;rounded=0;orthogonalLoop=1;jettySize=auto;html=1;entryX=0.432;entryY=0.485;entryDx=0;entryDy=0;entryPerimeter=0;" edge="1" parent="1" source="EQnFLqJTd3W4uoFZLphS-129" target="EQnFLqJTd3W4uoFZLphS-115">
          <mxGeometry relative="1" as="geometry">
            <mxPoint x="600" y="340" as="targetPoint" />
            <Array as="points">
              <mxPoint x="600" y="340" />
              <mxPoint x="600" y="340" />
            </Array>
          </mxGeometry>
        </mxCell>
        <mxCell id="EQnFLqJTd3W4uoFZLphS-137" style="edgeStyle=orthogonalEdgeStyle;rounded=0;orthogonalLoop=1;jettySize=auto;html=1;entryX=1;entryY=0.5;entryDx=0;entryDy=0;" edge="1" parent="1" source="EQnFLqJTd3W4uoFZLphS-129" target="EQnFLqJTd3W4uoFZLphS-134">
          <mxGeometry relative="1" as="geometry">
            <mxPoint x="820" y="620" as="targetPoint" />
            <Array as="points">
              <mxPoint x="840" y="265" />
              <mxPoint x="840" y="610" />
            </Array>
          </mxGeometry>
        </mxCell>
        <mxCell id="EQnFLqJTd3W4uoFZLphS-129" value="" style="rhombus;whiteSpace=wrap;html=1;" vertex="1" parent="1">
          <mxGeometry x="572.5" y="250" width="55" height="30" as="geometry" />
        </mxCell>
        <mxCell id="EQnFLqJTd3W4uoFZLphS-133" value="[Vypočítat novou trasu]" style="text;html=1;align=center;verticalAlign=middle;resizable=0;points=[];autosize=1;strokeColor=none;fillColor=none;" vertex="1" parent="1">
          <mxGeometry x="590" y="280" width="150" height="30" as="geometry" />
        </mxCell>
        <mxCell id="EQnFLqJTd3W4uoFZLphS-139" style="edgeStyle=orthogonalEdgeStyle;rounded=0;orthogonalLoop=1;jettySize=auto;html=1;entryX=0.5;entryY=0;entryDx=0;entryDy=0;" edge="1" parent="1" source="EQnFLqJTd3W4uoFZLphS-134" target="EQnFLqJTd3W4uoFZLphS-99">
          <mxGeometry relative="1" as="geometry" />
        </mxCell>
        <mxCell id="EQnFLqJTd3W4uoFZLphS-134" value="Začni výpočet" style="rounded=1;whiteSpace=wrap;html=1;arcSize=40;fontColor=#000000;fillColor=#ffffc0;strokeColor=#ff0000;" vertex="1" parent="1">
          <mxGeometry x="540" y="590" width="120" height="40" as="geometry" />
        </mxCell>
        <mxCell id="EQnFLqJTd3W4uoFZLphS-135" value="" style="endArrow=classic;html=1;rounded=0;exitX=0.513;exitY=0.509;exitDx=0;exitDy=0;exitPerimeter=0;" edge="1" parent="1" source="EQnFLqJTd3W4uoFZLphS-116" target="EQnFLqJTd3W4uoFZLphS-134">
          <mxGeometry width="50" height="50" relative="1" as="geometry">
            <mxPoint x="580" y="370" as="sourcePoint" />
            <mxPoint x="630" y="320" as="targetPoint" />
          </mxGeometry>
        </mxCell>
        <mxCell id="EQnFLqJTd3W4uoFZLphS-138" value="[vybrat uloženou trasu]" style="text;html=1;align=center;verticalAlign=middle;resizable=0;points=[];autosize=1;strokeColor=none;fillColor=none;" vertex="1" parent="1">
          <mxGeometry x="615" y="235" width="140" height="30" as="geometry" />
        </mxCell>
      </root>
    </mxGraphModel>
  </diagram>
</mxfile>
